<svg id="Group_903" data-name="Group 903" xmlns="http://www.w3.org/2000/svg" xmlns:xlink="http://www.w3.org/1999/xlink" width="18" height="17.819" viewBox="0 0 18 17.819">
  <defs>
    <clipPath id="clip-path">
      <rect id="Rectangle_547" data-name="Rectangle 547" width="18" height="17.819" fill="#fff"/>
    </clipPath>
  </defs>
  <g id="Group_902" data-name="Group 902" transform="translate(0 0)" clip-path="url(#clip-path)">
    <path id="Path_170" data-name="Path 170" d="M18,2.267A2.267,2.267,0,0,0,15.733,0H2.267A2.267,2.267,0,0,0,0,2.267V15.552a2.267,2.267,0,0,0,2.267,2.267H15.733A2.267,2.267,0,0,0,18,15.552ZM2.29.907H15.733a1.36,1.36,0,0,1,1.36,1.36v1.36H.907V2.267A1.36,1.36,0,0,1,2.267.907ZM15.733,16.912H2.267a1.36,1.36,0,0,1-1.36-1.36V4.534H17.093V15.552a1.36,1.36,0,0,1-1.36,1.36" transform="translate(0 0)" fill="#fff"/>
    <path id="Path_171" data-name="Path 171" d="M17.147,28.8H14.653a.453.453,0,0,0-.453.453v2.494a.453.453,0,0,0,.453.453h2.494a.453.453,0,0,0,.453-.453V29.253a.453.453,0,0,0-.453-.453m-.453,2.494H15.107V29.707h1.587Z" transform="translate(-10.981 -22.271)" fill="#fff"/>
    <path id="Path_172" data-name="Path 172" d="M39.653,29.707h3.174a.453.453,0,0,0,0-.907H39.653a.453.453,0,1,0,0,.907" transform="translate(-30.313 -22.271)" fill="#fff"/>
    <path id="Path_173" data-name="Path 173" d="M44.641,38.8H39.653a.453.453,0,1,0,0,.907h4.987a.453.453,0,0,0,0-.907" transform="translate(-30.313 -30.004)" fill="#fff"/>
    <path id="Path_174" data-name="Path 174" d="M17.147,50.8H14.653a.453.453,0,0,0-.453.453v2.494a.453.453,0,0,0,.453.453h2.494a.453.453,0,0,0,.453-.453V51.253a.453.453,0,0,0-.453-.453m-.453,2.494H15.107V51.707h1.587Z" transform="translate(-10.981 -39.284)" fill="#fff"/>
    <path id="Path_175" data-name="Path 175" d="M39.653,51.707h3.174a.453.453,0,0,0,0-.907H39.653a.453.453,0,0,0,0,.907" transform="translate(-30.313 -39.284)" fill="#fff"/>
    <path id="Path_176" data-name="Path 176" d="M44.641,60.8H39.653a.453.453,0,1,0,0,.907h4.987a.453.453,0,1,0,0-.907" transform="translate(-30.313 -47.017)" fill="#fff"/>
  </g>
</svg>
