<svg xmlns="http://www.w3.org/2000/svg" xmlns:xlink="http://www.w3.org/1999/xlink" width="21.191" height="24.159" viewBox="0 0 21.191 24.159">
  <defs>
    <clipPath id="clip-path">
      <rect id="Rectangle_546" data-name="Rectangle 546" width="21.191" height="24.159" fill="#fff" stroke="#fff" stroke-width="0.5"/>
    </clipPath>
  </defs>
  <g id="Group_901" data-name="Group 901" transform="translate(2 2)">
    <g id="Group_900" data-name="Group 900" transform="translate(-2 -2)" clip-path="url(#clip-path)">
      <path id="Path_166" data-name="Path 166" d="M16.515,99.014H.9a.882.882,0,0,1-.664-.292A.881.881,0,0,1,0,98.036l.565-6.684a.9.9,0,0,1,.9-.826H6.277a.223.223,0,1,1,0,.445H1.468a.454.454,0,0,0-.455.419L.448,98.074a.435.435,0,0,0,.119.348.435.435,0,0,0,.337.148H16.515a.457.457,0,0,0,.455-.5l-.565-6.684a.454.454,0,0,0-.455-.419H11.141a.223.223,0,1,1,0-.445H15.95a.9.9,0,0,1,.9.826l.565,6.684a.9.9,0,0,1-.9.978Z" transform="translate(1.887 -76.742)" fill="#fff" stroke="#fff" stroke-width="0.5" fill-rule="evenodd"/>
      <path id="Path_167" data-name="Path 167" d="M28.537.445a5.269,5.269,0,0,0-5.263,5.263,4.547,4.547,0,0,0,.544,2.068,61.262,61.262,0,0,0,3.371,5.612c.475.733.926,1.43,1.348,2.1.422-.674.873-1.371,1.348-2.1a61.367,61.367,0,0,0,3.371-5.613A4.548,4.548,0,0,0,33.8,5.708,5.269,5.269,0,0,0,28.537.445m0,15.691a.222.222,0,0,1-.189-.105c-.472-.764-.987-1.559-1.532-2.4a61.654,61.654,0,0,1-3.4-5.656,4.975,4.975,0,0,1-.591-2.267,5.708,5.708,0,0,1,11.417,0,4.974,4.974,0,0,1-.591,2.267,61.711,61.711,0,0,1-3.4,5.656c-.545.841-1.06,1.636-1.532,2.4a.223.223,0,0,1-.189.105" transform="translate(-17.942 1.887)" fill="#fff" stroke="#fff" stroke-width="0.5" fill-rule="evenodd"/>
      <path id="Path_168" data-name="Path 168" d="M47.53,23.251a2.39,2.39,0,1,0,2.39,2.39,2.392,2.392,0,0,0-2.39-2.39m0,5.225a2.835,2.835,0,1,1,2.835-2.835,2.838,2.838,0,0,1-2.835,2.835" transform="translate(-36.934 -17.922)" fill="#fff" stroke="#fff" stroke-width="0.5" fill-rule="evenodd"/>
      <path id="Path_169" data-name="Path 169" d="M27,108.545H14.594a.675.675,0,0,1-.673-.733l.316-3.739a.672.672,0,0,1,.673-.619h4.553a.222.222,0,1,1,0,.445H14.91a.229.229,0,0,0-.23.211l-.316,3.738a.231.231,0,0,0,.23.25H27a.23.23,0,0,0,.23-.25l-.316-3.738a.229.229,0,0,0-.23-.211H22.133a.222.222,0,1,1,0-.445h4.553a.672.672,0,0,1,.673.619l.316,3.739a.676.676,0,0,1-.673.733Z" transform="translate(-10.202 -87.972)" fill="#fff" stroke="#fff" stroke-width="0.5" fill-rule="evenodd"/>
    </g>
  </g>
</svg>
