<svg xmlns="http://www.w3.org/2000/svg" width="16" height="16" viewBox="0 0 16 16">
  <g id="Icon" transform="translate(0.239 -0.322)">
    <path id="Shape" d="M15.449,16H.557a.541.541,0,0,1-.551-.53V11.807a.174.174,0,0,1,0-.086V1.059A.522.522,0,0,1,.161.675a.566.566,0,0,1,.4-.16H4.324a.556.556,0,0,1,.566.544V2.39L5.784.343a.555.555,0,0,1,.3-.3.568.568,0,0,1,.432,0l3.5,1.259a.544.544,0,0,1,.3.291.515.515,0,0,1,0,.41l-.8,1.947L11,2.518a.568.568,0,0,1,.789,0l2.621,2.519a.516.516,0,0,1,0,.759L8.658,11.363h6.806a.546.546,0,0,1,.38.151.508.508,0,0,1,.156.379V15.47A.541.541,0,0,1,15.449,16ZM1.182,12.408h0v2.519H14.824V12.408H1.182Zm10.2-8.759L3.371,11.363H7.079L13.23,5.424ZM1.182,1.588h0v9.675L3.773,4.994V1.588H1.182Zm5.407-.357h0L2.716,10.462,7.436,5.9,9,2.175,6.588,1.231Z" transform="translate(-0.239 0.322)" fill="#bfc4c7"/>
    <path id="Shape-2" data-name="Shape" d="M.918,1.764H.9A.9.9,0,0,1,0,.9.879.879,0,0,1,.56.07.944.944,0,0,1,.917,0a.932.932,0,0,1,.65.259.852.852,0,0,1,.2.968A.917.917,0,0,1,.918,1.764ZM.9.588A.313.313,0,0,0,.682.679.288.288,0,0,0,.6.9.3.3,0,0,0,.9,1.19H.918a.309.309,0,0,0,.211-.081A.288.288,0,0,0,1.224.9.3.3,0,0,0,1.13.678.326.326,0,0,0,.9.588Z" transform="translate(1.799 12.288)" fill="#bfc4c7"/>
  </g>
</svg>
