<svg xmlns="http://www.w3.org/2000/svg" width="24" height="24" viewBox="0 0 24 24">
  <g id="btnSigninwithGoogle" transform="translate(-172 -589)">
    <g id="iconGoogle">
      <path id="Vector" d="M18.014,7.284a11.982,11.982,0,0,1-7.72,2.873A12,12,0,0,1,0,4.233L.779.641,4.233,0a6.373,6.373,0,0,0,6.061,4.486,6.238,6.238,0,0,0,3.712-1.209l3.319.506Z" transform="translate(173.707 602.842)" fill="#59c36a"/>
      <path id="Vector-2" data-name="Vector" d="M0,6.881V1.209A6.238,6.238,0,0,0,3.713,0L7.031.506l.689,3.5A11.982,11.982,0,0,1,0,6.881Z" transform="translate(184 606.119)" fill="#00a66c"/>
      <path id="Vector-3" data-name="Vector" d="M5.672,6.075a6.554,6.554,0,0,0,.267,1.842L1.706,12.15A11.882,11.882,0,0,1,0,6.075,11.882,11.882,0,0,1,1.706,0L5.1.585l.836,3.648a6.553,6.553,0,0,0-.267,1.842Z" transform="translate(172 594.925)" fill="#ffda2d"/>
      <path id="Vector-4" data-name="Vector" d="M12.7,2.813a11.981,11.981,0,0,1-4.28,9.127L4.416,7.931A6.222,6.222,0,0,0,6.37,5.625H.7a.7.7,0,0,1-.7-.7V.7A.7.7,0,0,1,.7,0H11.8a.7.7,0,0,1,.689.577A11.923,11.923,0,0,1,12.7,2.812Z" transform="translate(183.297 598.188)" fill="#4086f4"/>
      <path id="Vector-5" data-name="Vector" d="M0,5.625V0H11.1a.7.7,0,0,1,.689.577A11.92,11.92,0,0,1,12,2.813a11.981,11.981,0,0,1-4.28,9.127L3.713,7.931A6.223,6.223,0,0,0,5.667,5.625Z" transform="translate(184 598.188)" fill="#376aed"/>
      <path id="Vector-6" data-name="Vector" d="M18.211,3.352a.71.71,0,0,1-.2.52L15,6.867a.689.689,0,0,1-.914.07,6.29,6.29,0,0,0-3.8-1.266,6.373,6.373,0,0,0-6.061,4.486L0,5.925A12,12,0,0,1,10.294,0a11.964,11.964,0,0,1,7.664,2.831.739.739,0,0,1,.253.52Z" transform="translate(173.707 589)" fill="#ff7f23"/>
      <path id="Vector-7" data-name="Vector" d="M0,5.672V0A11.964,11.964,0,0,1,7.664,2.831a.74.74,0,0,1,.253.52.709.709,0,0,1-.2.52l-3.009,3a.689.689,0,0,1-.914.07A6.29,6.29,0,0,0,0,5.672Z" transform="translate(184 589)" fill="#f03800"/>
    </g>
  </g>
</svg>
