<svg xmlns="http://www.w3.org/2000/svg" xmlns:xlink="http://www.w3.org/1999/xlink" width="18" height="18" viewBox="0 0 18 18">
  <defs>
    <clipPath id="clip-path">
      <rect id="Rectangle_549" data-name="Rectangle 549" width="18" height="18" transform="translate(0 0)" fill="#fff"/>
    </clipPath>
  </defs>
  <g id="Group_907" data-name="Group 907" clip-path="url(#clip-path)">
    <path id="Path_178" data-name="Path 178" d="M6.7,0H1.837A1.842,1.842,0,0,0,0,1.837V6.7A1.842,1.842,0,0,0,1.837,8.541H6.7A1.842,1.842,0,0,0,8.541,6.7V1.837A1.842,1.842,0,0,0,6.7,0m.918,6.7a.921.921,0,0,1-.918.918H1.837A.921.921,0,0,1,.918,6.7V1.837A.921.921,0,0,1,1.837.918H6.7a.921.921,0,0,1,.918.918ZM16.163,0H11.3A1.842,1.842,0,0,0,9.459,1.837V6.7A1.842,1.842,0,0,0,11.3,8.541h4.867A1.842,1.842,0,0,0,18,6.7V1.837A1.842,1.842,0,0,0,16.163,0m.918,6.7a.921.921,0,0,1-.918.918H11.3a.921.921,0,0,1-.918-.918V1.837A.921.921,0,0,1,11.3.918h4.867a.921.921,0,0,1,.918.918ZM6.7,9.459H1.837A1.842,1.842,0,0,0,0,11.3v4.867A1.842,1.842,0,0,0,1.837,18H6.7a1.842,1.842,0,0,0,1.837-1.837V11.3A1.842,1.842,0,0,0,6.7,9.459m.918,6.7a.921.921,0,0,1-.918.918H1.837a.921.921,0,0,1-.918-.918V11.3a.921.921,0,0,1,.918-.918H6.7a.921.921,0,0,1,.918.918Zm8.541-6.7H11.3A1.842,1.842,0,0,0,9.459,11.3v4.867A1.842,1.842,0,0,0,11.3,18h4.867A1.842,1.842,0,0,0,18,16.163V11.3a1.842,1.842,0,0,0-1.837-1.837m.918,6.7a.921.921,0,0,1-.918.918H11.3a.921.921,0,0,1-.918-.918V11.3a.921.921,0,0,1,.918-.918h4.867a.921.921,0,0,1,.918.918Z" transform="translate(0 0)" fill="#fff"/>
  </g>
</svg>
