<svg xmlns="http://www.w3.org/2000/svg" xmlns:xlink="http://www.w3.org/1999/xlink" width="22" height="19.592" viewBox="0 0 22 19.592">
  <defs>
    <clipPath id="clip-path">
      <rect id="Rectangle_543" data-name="Rectangle 543" width="22" height="19.592" transform="translate(-2 -2)" fill="#fff"/>
    </clipPath>
  </defs>
  <g id="Group_871" data-name="Group 871" transform="translate(2 2)">
    <g id="Group_870" data-name="Group 870" transform="translate(0 0)" clip-path="url(#clip-path)">
      <path id="Path_135" data-name="Path 135" d="M16.581,1.44A4.713,4.713,0,0,0,13.166,0,4.809,4.809,0,0,0,9.738,1.434L9,2.174l-.74-.74A4.809,4.809,0,0,0,4.832,0,4.724,4.724,0,0,0,1.424,1.428,4.829,4.829,0,0,0,1.4,8.258l.019.019L8.542,15.4a.643.643,0,0,0,.909,0l0,0,1.35-1.357a.643.643,0,0,0-.907-.907l-.9.894L2.324,7.363a3.55,3.55,0,0,1-.009-5.02l.009-.009A3.5,3.5,0,0,1,4.832,1.286,3.544,3.544,0,0,1,7.353,2.341l1.19,1.2a.643.643,0,0,0,.909,0l0,0,1.19-1.2a3.544,3.544,0,0,1,2.521-1.055,3.484,3.484,0,0,1,2.508,1.061,3.537,3.537,0,0,1,.014,5l-.014.014a.643.643,0,1,0,.9.913,4.81,4.81,0,0,0,.033-6.8l-.033-.033Z" transform="translate(0 0)" fill="#fff"/>
      <path id="Path_136" data-name="Path 136" d="M21.639,14.371H20.031V12.763a.643.643,0,0,0-1.286,0v1.608H17.137a.643.643,0,0,0,0,1.286h1.608v1.608a.643.643,0,1,0,1.286,0V15.657h1.608a.643.643,0,1,0,0-1.286" transform="translate(-5.887 -4.326)" fill="#fff"/>
    </g>
  </g>
</svg>
