<svg xmlns="http://www.w3.org/2000/svg" xmlns:xlink="http://www.w3.org/1999/xlink" width="24" height="21" viewBox="0 0 24 21">
  <defs>
    <clipPath id="clip-path">
      <rect id="Rectangle_550" data-name="Rectangle 550" width="24" height="21" transform="translate(-3 -2.5)" fill="#fff"/>
    </clipPath>
  </defs>
  <g id="Group_916" data-name="Group 916" transform="translate(3 2.167)">
    <g id="Group_915" data-name="Group 915" transform="translate(0 0.333)" clip-path="url(#clip-path)">
      <path id="Path_179" data-name="Path 179" d="M17.535,6.465A1.579,1.579,0,0,0,16.415,6H13.5V1.825A1.829,1.829,0,0,0,11.675,0H1.825A1.829,1.829,0,0,0,0,1.825v6.85A1.829,1.829,0,0,0,1.825,10.5H2V13a.5.5,0,0,0,.29.455.531.531,0,0,0,.21.045.5.5,0,0,0,.325-.12l3.36-2.88H7v2.425A1.585,1.585,0,0,0,8.585,14.5h4.21l2.35,2.355A.5.5,0,0,0,16,16.5v-2h.415A1.585,1.585,0,0,0,18,12.925V7.585a1.57,1.57,0,0,0-.465-1.12M6,9.5a.5.5,0,0,0-.325.12L3,11.915V10a.5.5,0,0,0-.5-.5H1.825A.825.825,0,0,1,1,8.675V1.825A.825.825,0,0,1,1.825,1h9.85a.825.825,0,0,1,.825.825v6.85a.825.825,0,0,1-.825.825Zm11,3.425a.585.585,0,0,1-.585.575H15.5a.5.5,0,0,0-.5.5v1.295L13.355,13.65A.5.5,0,0,0,13,13.5H8.585A.585.585,0,0,1,8,12.925V10.5h3.675A1.829,1.829,0,0,0,13.5,8.675V7h2.915A.58.58,0,0,1,17,7.575v5.35Z" transform="translate(0 -0.25)" fill="#fff"/>
      <path id="Path_180" data-name="Path 180" d="M12.5,5.75a1.287,1.287,0,0,1-.385.925,2.105,2.105,0,0,0-.615,1.5V8.5a.5.5,0,1,0,1,0V8.165a1.085,1.085,0,0,1,.325-.78A2.3,2.3,0,0,0,13.5,5.75a1.75,1.75,0,1,0-3.5,0V6a.5.5,0,1,0,1,0V5.75a.75.75,0,1,1,1.5,0" transform="translate(-5 -2.25)" fill="#fff"/>
      <path id="Path_181" data-name="Path 181" d="M13.5,15a.5.5,0,1,1-.5.5.5.5,0,0,1,.5-.5" transform="translate(-6.5 -7.75)" fill="#fff"/>
    </g>
  </g>
</svg>
