<svg xmlns="http://www.w3.org/2000/svg" width="17.281" height="17.313" viewBox="0 0 17.281 17.313">
  <path id="Icon" d="M15.374,7.725H13.858a.278.278,0,0,0-.277.264v7.4a.278.278,0,0,1-.277.264H10.788a.278.278,0,0,1-.277-.264V10.808a.278.278,0,0,0-.277-.264H5.424a.278.278,0,0,0-.277.264v4.581a.278.278,0,0,1-.277.264h-2.5a.278.278,0,0,1-.277-.264v-7.4a.278.278,0,0,0-.277-.264H.282a.268.268,0,0,1-.2-.458L7.625.079a.3.3,0,0,1,.407,0l7.546,7.188A.272.272,0,0,1,15.374,7.725Z" transform="translate(0.814 0.86)" fill="#007844" stroke="#007844" stroke-linecap="round" stroke-linejoin="round" stroke-width="1.6"/>
</svg>
