<svg id="Group_905" data-name="Group 905" xmlns="http://www.w3.org/2000/svg" xmlns:xlink="http://www.w3.org/1999/xlink" width="18" height="18" viewBox="0 0 18 18">
  <defs>
    <clipPath id="clip-path">
      <rect id="Rectangle_548" data-name="Rectangle 548" width="18" height="18" fill="#fff"/>
    </clipPath>
  </defs>
  <g id="Group_904" data-name="Group 904" clip-path="url(#clip-path)">
    <path id="Path_177" data-name="Path 177" d="M17.688,12.683l-3.55-1.8L17.5,9.148c.107-.056.107-.145,0-.2l-3.79-1.919,3.984-2.06a.518.518,0,0,0,0-.949L9.917.088A.888.888,0,0,0,9.522,0a.876.876,0,0,0-.366.076L.324,4.211a.511.511,0,0,0-.008.948L4.558,7.246.5,9.144c-.108.051-.109.135,0,.188L4.1,11.1.324,12.872a.511.511,0,0,0-.008.948l8.333,4.1A.859.859,0,0,0,9.023,18a.873.873,0,0,0,.394-.09l8.275-4.278a.518.518,0,0,0,0-.949M9.5.845a.119.119,0,0,1,.022,0c.013,0,.022,0,.017,0L16.767,4.5,9.045,8.494a.107.107,0,0,1-.022,0l0,0L1.279,4.694Zm-.454,16.31a.1.1,0,0,1-.023,0l0,0L1.28,13.355l3.66-1.714,3.708,1.823a.9.9,0,0,0,.769-.008l3.926-2.029,3.424,1.734Z" transform="translate(0)" fill="#fff"/>
  </g>
</svg>
